<?xml version="1.0" encoding="UTF-8"?>
<svg id="Layer_1" data-name="Layer 1" xmlns="http://www.w3.org/2000/svg" viewBox="0 0 2016.32 712.18">
  <defs>
    <style>
      .cls-1 {
        fill: #c09e71;
        stroke-width: 0px;
      }
    </style>
  </defs>
  <g>
    <path class="cls-1" d="m761.05,346.6h-33.92c-.87,0-1.58-.71-1.58-1.58v-23.66c0-.87-.71-1.58-1.58-1.58h-16.88c-.87,0-1.58.71-1.58,1.58v69.46c0,.87.71,1.58,1.58,1.58h16.88c.87,0,1.58-.71,1.58-1.58v-24.82c0-.87.71-1.58,1.58-1.58h33.92c.87,0,1.58.71,1.58,1.58v24.82c0,.87.71,1.58,1.58,1.58h16.98c.87,0,1.58-.71,1.58-1.58v-69.46c0-.87-.71-1.58-1.58-1.58h-16.98c-.87,0-1.58.71-1.58,1.58v23.66c0,.87-.71,1.58-1.58,1.58Z"/>
    <path class="cls-1" d="m822.25,320.7l-31.58,69.46c-.48,1.05.29,2.24,1.44,2.24h17.9c.63,0,1.2-.37,1.45-.95l5.22-12.04c.25-.58.82-.95,1.45-.95h35.53c.63,0,1.2.38,1.45.96l5.2,12.03c.25.58.82.96,1.45.96h17.9c1.15,0,1.92-1.19,1.44-2.24l-31.58-69.46c-.26-.57-.82-.93-1.44-.93h-24.4c-.62,0-1.18.36-1.44.93Zm2.82,39.37l9.41-21.71c.55-1.27,2.36-1.27,2.91,0l9.38,21.71c.45,1.05-.31,2.21-1.45,2.21h-18.79c-1.14,0-1.91-1.17-1.45-2.21Z"/>
    <path class="cls-1" d="m911.95,338.03c3.29-1.65,7.2-2.47,11.72-2.47,3.94,0,7.41.58,10.41,1.74,3,1.16,5.44,2.83,7.31,4.99,1.62,1.88,2.79,4.1,3.49,6.68.19.7.8,1.21,1.53,1.21h17.08c.96,0,1.73-.86,1.58-1.81-.9-5.64-3.01-10.64-6.34-14.99-3.68-4.81-8.51-8.54-14.48-11.18-5.97-2.65-12.83-3.97-20.58-3.97-8.46,0-15.85,1.58-22.18,4.75-6.33,3.16-11.25,7.59-14.77,13.27-3.52,5.68-5.28,12.3-5.28,19.85s1.76,14.17,5.28,19.85c3.52,5.68,8.44,10.1,14.77,13.27,6.33,3.16,13.72,4.75,22.18,4.75,7.75,0,14.61-1.33,20.58-3.97,5.97-2.65,10.8-6.38,14.48-11.19,3.33-4.35,5.44-9.34,6.34-14.99.15-.95-.62-1.81-1.58-1.81h-17.07c-.73,0-1.34.51-1.53,1.22-.7,2.64-1.86,4.91-3.49,6.82-1.87,2.2-4.31,3.84-7.31,4.94-3,1.1-6.47,1.65-10.41,1.65-4.52,0-8.43-.82-11.72-2.47-3.29-1.65-5.81-4-7.55-7.07-1.74-3.07-2.61-6.73-2.61-10.99s.87-7.92,2.61-10.99c1.74-3.07,4.26-5.42,7.55-7.07Z"/>
    <path class="cls-1" d="m1048.75,319.78h-17.12c-.49,0-.95.22-1.25.61l-32.53,41.48c-.93,1.18-2.83.53-2.83-.98v-39.53c0-.87-.71-1.58-1.58-1.58h-16.78c-.87,0-1.58.71-1.58,1.58v69.46c0,.87.71,1.58,1.58,1.58h15.77c.48,0,.93-.22,1.23-.59l19.52-24.08c.69-.86,2.03-.76,2.59.19l14.04,23.7c.29.48.8.78,1.36.78h19.04c1.24,0,1.99-1.35,1.35-2.41l-23.64-38.78c-.35-.57-.3-1.3.12-1.82l21.92-27.04c.84-1.03.1-2.58-1.23-2.58Z"/>
    <path class="cls-1" d="m1114.89,346.6h-33.92c-.87,0-1.58-.71-1.58-1.58v-23.66c0-.87-.71-1.58-1.58-1.58h-16.88c-.87,0-1.58.71-1.58,1.58v69.46c0,.87.71,1.58,1.58,1.58h16.88c.87,0,1.58-.71,1.58-1.58v-24.82c0-.87.71-1.58,1.58-1.58h33.92c.87,0,1.58.71,1.58,1.58v24.82c0,.87.71,1.58,1.58,1.58h16.98c.87,0,1.58-.71,1.58-1.58v-69.46c0-.87-.71-1.58-1.58-1.58h-16.98c-.87,0-1.58.71-1.58,1.58v23.66c0,.87-.71,1.58-1.58,1.58Z"/>
    <path class="cls-1" d="m1202.46,359.96c0,3.29-.62,6.15-1.84,8.57-1.23,2.42-3.07,4.28-5.52,5.57-2.45,1.29-5.52,1.94-9.2,1.94s-6.67-.65-9.15-1.94c-2.49-1.29-4.36-3.15-5.62-5.57-1.26-2.42-1.89-5.28-1.89-8.57v-38.6c0-.87-.71-1.58-1.58-1.58h-16.88c-.87,0-1.58.71-1.58,1.58v39.57c0,6.65,1.53,12.44,4.6,17.38,3.07,4.94,7.36,8.78,12.88,11.52,5.52,2.74,11.93,4.12,19.22,4.12s13.78-1.37,19.27-4.12c5.49-2.74,9.76-6.58,12.83-11.52,3.07-4.94,4.6-10.73,4.6-17.38v-39.57c0-.87-.71-1.58-1.58-1.58h-16.97c-.87,0-1.58.71-1.58,1.58v38.6Z"/>
    <path class="cls-1" d="m1308.11,362.24c-1.81-2.81-4.54-5-8.18-6.58-1.42-.62-3.03-1.09-4.75-1.48.64-.3,1.28-.59,1.84-.94,3.13-1.9,5.41-4.24,6.83-7.02,1.42-2.77,2.13-5.68,2.13-8.71,0-5.55-1.87-9.89-5.62-13.03-3.74-3.13-8.97-4.7-15.69-4.7h-49.86c-.97,0-1.72.87-1.56,1.83l5.29,33.27c.03.16.03.32,0,.48l-5.31,35.22c-.14.96.6,1.82,1.57,1.82h51.81c5.36,0,9.83-.89,13.41-2.66,3.58-1.77,6.28-4.19,8.09-7.26,1.8-3.07,2.71-6.57,2.71-10.51,0-3.68-.91-6.92-2.71-9.73Zm-24.6-26.53c1.36,1.26,2.03,2.86,2.03,4.79,0,2.39-.79,4.28-2.37,5.67-1.58,1.39-3.53,2.08-5.86,2.08h-19.32c-.78,0-1.44-.56-1.56-1.33l-1.81-11.26c-.15-.96.59-1.83,1.56-1.83h21.52c2.52,0,4.45.63,5.81,1.89Zm4.45,40.53c-1.62,1.42-3.87,2.13-6.78,2.13h-25.11c-.97,0-1.71-.86-1.57-1.82l2-13.2c.12-.77.78-1.35,1.57-1.35h21.95c3.42,0,6,.76,7.75,2.28,1.74,1.52,2.61,3.53,2.61,6.05s-.81,4.49-2.42,5.91Z"/>
  </g>
  <path class="cls-1" d="m935.09,356.52c-4.72,1.23-8.44,4.94-9.67,9.67-.11.44-.75.44-.86,0-1.23-4.72-4.94-8.44-9.67-9.67-.44-.11-.44-.75,0-.86,4.72-1.23,8.44-4.94,9.67-9.67.11-.44.75-.44.86,0,1.23,4.72,4.94,8.44,9.67,9.67.44.11.44.75,0,.86Z"/>
</svg>